# xmcd
#
# Track frame offsets:
#        150
#        37227
#        70935
#        104382
#        144177
#        181696
#        219453
#        258319
#        292173
#
# Disc length: 4367 seconds
#
# Revision: 0
# Processed by: cddbd v1.5.1PL0 Copyright (c) Steve Scherf et al.
# Submitted via: ExactAudioCopy v0.95b2
#
DISCID=88110d09
DTITLE=Penta - Funraiser
DYEAR=2005
DGENRE=Psychedelic Trance
TTITLE0=It is done
TTITLE1=Detonator
TTITLE2=Inverter
TTITLE3=Pigletango
TTITLE4=Past holidays
TTITLE5=September
TTITLE6=Eater of worlds
TTITLE7=For the first time
TTITLE8=Flash forward
EXTD=
EXTT0=
EXTT1=
EXTT2=
EXTT3=
EXTT4=
EXTT5=
EXTT6=
EXTT7=
EXTT8=
PLAYORDER=
